# xmcd
#
# Track frame offsets:
#	150
#	15212
#	29810
#	44532
#	62150
#	76237
#	88390
#	101640
#	112802
#	117887
#	135010
#	148025
#	161137
#	175232
#	185842
#	208975
#
# Disc length: 2812 seconds
#
# Revision: 0
# Processed by: cddbd v1.5.1PL2 Copyright (c) Steve Scherf et al.
# Submitted via: dBpowerAMP V4.0
#
DISCID=e00afa10
DTITLE=Various Artist - Woodstock Mountains (More Music From Mud Acres)
DYEAR=1977
DGENRE=Bluegrass
TTITLE0=Bluegrass Boy
TTITLE1=Cold Front
TTITLE2=I'm Gonna Sleep With One Eye Open
TTITLE3=Killing The Blues
TTITLE4=Waiting For A Train
TTITLE5=Morning Blues
TTITLE6=Weary Blues
TTITLE7=Mason Dixon's On The Line
TTITLE8=My Love Is But A Lassie Yet
TTITLE9=Woodstock Mountains
TTITLE10=Long Journey
TTITLE11=Sally Ann
TTITLE12=Barbed Wire
TTITLE13=Whole World 'Round
TTITLE14=Amazing Grace
TTITLE15=DATA
EXTD=
EXTT0=
EXTT1=
EXTT2=
EXTT3=
EXTT4=
EXTT5=
EXTT6=
EXTT7=
EXTT8=
EXTT9=
EXTT10=
EXTT11=
EXTT12=
EXTT13=
EXTT14=
EXTT15=
PLAYORDER=
